<?xml version="1.0" encoding="UTF-8" standalone="no"?>
<svg width="14px" height="14px" viewBox="0 0 14 14" version="1.1" xmlns="http://www.w3.org/2000/svg" xmlns:xlink="http://www.w3.org/1999/xlink">
    <!-- Generator: Sketch 3.6.1 (26313) - http://www.bohemiancoding.com/sketch -->
    <title>Oval 15</title>
    <desc>Created with Sketch.</desc>
    <defs></defs>
    <g id="搜索框-优化" stroke="none" stroke-width="1" fill="none" fill-rule="evenodd">
        <g id="作品列表页" transform="translate(-290.000000, -35.000000)" fill="#E6E6E6">
            <g id="search-bar" transform="translate(46.000000, 27.000000)">
                <path d="M251,14.2928932 L248.178396,11.4712893 C247.978994,11.2718875 247.659728,11.2692039 247.464466,11.4644661 C247.274915,11.6540177 247.272259,11.9793656 247.471289,12.1783961 L250.292893,15 L251,14.2928932 Z M251.707107,15 L254.528711,17.8216039 C254.727741,18.0206344 254.725085,18.3459823 254.535534,18.5355339 C254.340272,18.7307961 254.021006,18.7281125 253.821604,18.5287107 L251,15.7071068 L251.707107,15 Z M251,22 C254.865993,22 258,18.8659932 258,15 C258,11.1340068 254.865993,8 251,8 C247.134007,8 244,11.1340068 244,15 C244,18.8659932 247.134007,22 251,22 Z M251,14.2928932 L251.707107,15 L254.528711,12.1783961 C254.728112,11.9789943 254.730796,11.6597282 254.535534,11.4644661 C254.345982,11.2749145 254.020634,11.2722588 253.821604,11.4712893 L251,14.2928932 Z M251,15.7071068 L250.292893,15 L247.471289,17.8216039 C247.271888,18.0210057 247.269204,18.3402718 247.464466,18.5355339 C247.654018,18.7250855 247.979366,18.7277412 248.178396,18.5287107 L251,15.7071068 Z M251,15.5 C251.276142,15.5 251.5,15.2761424 251.5,15 C251.5,14.7238576 251.276142,14.5 251,14.5 C250.723858,14.5 250.5,14.7238576 250.5,15 C250.5,15.2761424 250.723858,15.5 251,15.5 Z" id="Oval-15"></path>
            </g>
        </g>
    </g>
</svg>