<?xml version="1.0" standalone="no"?><!DOCTYPE svg PUBLIC "-//W3C//DTD SVG 1.1//EN" "http://www.w3.org/Graphics/SVG/1.1/DTD/svg11.dtd"><svg width="283.3984375" height="200" viewBox="0 0 283.3984375 200" version="1.1" xmlns="http://www.w3.org/2000/svg" xmlns:xlink="http://www.w3.org/1999/xlink"><defs><style type="text/css"><![CDATA[
@font-face { font-family: ifont; src: url("//at.alicdn.com/t/font_1442373896_4754455.eot?#iefix") format("embedded-opentype"), url("//at.alicdn.com/t/font_1442373896_4754455.woff") format("woff"), url("//at.alicdn.com/t/font_1442373896_4754455.ttf") format("truetype"), url("//at.alicdn.com/t/font_1442373896_4754455.svg#ifont") format("svg"); }

]]></style></defs><g class="transform-group"><g transform="scale(0.1953125, 0.1953125)"><path d="M725.333333 832.435371C848.036756 832.435371 945.777775 727.114436 945.777775 599.074833 945.777775 471.035224 848.036756 365.714286 725.333333 365.714286 602.629911 365.714286 504.888889 471.035224 504.888889 599.074833 504.888889 727.114436 602.629911 832.435371 725.333333 832.435371L725.333333 832.435371ZM725.333333 748.843537C651.668844 748.843537 590.222223 682.631663 590.222223 599.074833 590.222223 515.517993 651.668844 449.306122 725.333333 449.306122 798.997822 449.306122 860.444442 515.517993 860.444442 599.074833 860.444442 682.631663 798.997822 748.843537 725.333333 748.843537L725.333333 748.843537ZM120.649673 642.018364C128.634157 630.480794 144.50835 609.514462 167.486239 582.28654 205.992427 536.658177 250.068793 491.002237 298.863883 448.484585 436.171379 328.841556 582.555407 257.741496 730.831171 257.741496 878.944717 257.741497 1023.095117 328.697893 1156.920875 448.149682 1204.485325 490.605324 1247.256329 536.198927 1284.465041 581.764397 1306.664363 608.949513 1321.936077 629.874884 1329.578795 641.372339L1329.455326 595.945207C1322.839671 606.01443 1309.180809 624.604971 1288.848469 648.858462 1254.657911 689.642786 1214.497715 730.482014 1168.793207 768.539179 1039.43383 876.253969 892.597973 940.408166 730.831171 940.408166 568.909553 940.408166 419.833127 876.124305 286.971158 768.210099 240.024715 730.078882 198.551459 689.162539 163.059169 648.299358 141.945208 623.990315 127.68305 605.34598 120.726572 595.223861L120.649673 642.018364 120.649673 642.018364ZM50.016993 595.112357C40.244667 609.233357 40.214229 627.75511 49.940095 641.906859 58.603158 654.512162 74.765705 675.640806 98.067239 702.468463 136.600774 746.833101 181.51538 791.144585 232.504459 832.559343 379.458269 951.919334 546.615755 1024 730.831171 1024 915.201408 1024 1080.476083 951.789679 1224.060186 832.230263 1273.885901 790.741461 1317.536452 746.352862 1354.794607 701.909359 1377.331499 675.02615 1392.894686 653.843712 1401.211341 641.18551 1410.30743 627.340988 1410.259089 609.555251 1401.087872 595.758376 1398.667827 592.117745 1394.221133 585.720591 1387.825715 576.957554 1377.347362 562.600055 1365.080747 546.666706 1351.101338 529.54764 1311.252514 480.7491 1265.501372 431.978691 1214.394658 386.361255 1066.302822 254.175683 903.727164 174.14966 730.831171 174.14966 558.097399 174.149659 393.63198 254.032017 242.14959 386.026353 189.868221 431.581779 142.845319 480.289849 101.716865 529.025498 87.289495 546.121382 74.605898 562.031949 63.75248 576.366934 57.132 585.111138 52.52391 591.489865 50.016993 595.112357L50.016993 595.112357ZM1299.607885 221.221332 1228.496777 290.881197C1211.834411 307.203518 1211.834411 333.66723 1228.496777 349.989552 1245.159151 366.311873 1272.174182 366.311873 1288.836557 349.989552L1359.947665 280.329688C1376.610039 264.007366 1376.610039 237.543654 1359.947665 221.221332 1343.285299 204.899011 1316.270259 204.899011 1299.607885 221.221332L1299.607885 221.221332ZM718.222223 41.795919 718.222223 111.455782C718.222223 134.539031 737.324739 153.251701 760.888889 153.251701 784.453038 153.251701 803.555556 134.539031 803.555556 111.455782L803.555556 41.795919C803.555556 18.71267 784.453038 0 760.888889 0 737.324739 0 718.222223 18.71267 718.222223 41.795919L718.222223 41.795919ZM90.719 280.329688 161.830111 349.989552C178.492481 366.311873 205.507519 366.311873 222.169889 349.989552 238.832259 333.66723 238.832259 307.203518 222.169889 290.881197L151.058778 221.221332C134.396408 204.899011 107.381369 204.899011 90.719 221.221332 74.05663 237.543654 74.05663 264.007366 90.719 280.329688L90.719 280.329688Z" fill="#272636"></path></g></g></svg>