<?xml version="1.0" standalone="no"?><!DOCTYPE svg PUBLIC "-//W3C//DTD SVG 1.1//EN" "http://www.w3.org/Graphics/SVG/1.1/DTD/svg11.dtd"><svg width="425" height="200" viewBox="0 0 425 200" version="1.1" xmlns="http://www.w3.org/2000/svg" xmlns:xlink="http://www.w3.org/1999/xlink"><defs><style type="text/css"><![CDATA[
@font-face { font-family: ifont; src: url("//at.alicdn.com/t/font_1442373896_4754455.eot?#iefix") format("embedded-opentype"), url("//at.alicdn.com/t/font_1442373896_4754455.woff") format("woff"), url("//at.alicdn.com/t/font_1442373896_4754455.ttf") format("truetype"), url("//at.alicdn.com/t/font_1442373896_4754455.svg#ifont") format("svg"); }

]]></style></defs><g class="transform-group"><g transform="scale(0.1953125, 0.1953125)"><path d="M274.745166 530.745166 146.745166 658.745166C121.751611 683.738721 121.751611 724.261279 146.745166 749.254834 171.738721 774.248384 212.261279 774.248384 237.254834 749.254834L365.254834 621.254834C390.248389 596.261279 390.248389 555.738721 365.254834 530.745166 340.261279 505.751611 299.738721 505.751611 274.745166 530.745166ZM1024 832 1024 960C1024 995.346227 1052.653777 1024 1088 1024 1123.346223 1024 1152 995.346227 1152 960L1152 832C1152 796.653773 1123.346223 768 1088 768 1052.653777 768 1024 796.653773 1024 832ZM1810.745165 621.254834 1938.745165 749.254834C1963.738726 774.248384 2004.261274 774.248384 2029.254835 749.254834 2054.248384 724.261279 2054.248384 683.738721 2029.254835 658.745166L1901.254835 530.745166C1876.261274 505.751611 1835.738726 505.751611 1810.745165 530.745166 1785.751616 555.738721 1785.751616 596.261279 1810.745165 621.254834ZM78.420996 168.471254C92.75228 186.027685 119.145361 215.580881 156.544037 253.15114 218.43663 315.327693 289.161413 377.435575 367.732918 435.4775 594.396096 602.916922 839.877495 704.000001 1096.246757 704 1352.836429 703.999999 1595.485286 602.740092 1817.105869 435.034854 1893.937792 376.894415 1962.77655 314.682874 2022.769382 252.399194 2059.032384 214.751473 2084.539046 185.12206 2098.364224 167.489802 2120.17385 139.674408 2115.305203 99.445388 2087.489805 77.635772 2059.674406 55.826156 2019.445389 60.694802 1997.635776 88.510198 1986.370253 102.87794 1963.668966 129.248527 1930.580186 163.600806 1874.986726 221.317126 1811.04224 279.105585 1739.867443 332.965146 1538.611635 485.259907 1321.171379 576 1096.246757 576 871.101714 576 650.308942 485.083078 443.787291 332.5225 370.744108 278.564425 304.819988 220.672307 247.26062 162.84886 212.988118 128.419119 189.369263 101.972315 177.579004 87.528746 155.227348 60.147018 114.910474 56.06934 87.528747 78.420996 60.147019 100.772652 56.06934 141.089526 78.420996 168.471254Z" fill="#272636"></path></g></g></svg>