<svg viewBox="0 0 46 46" xmlns="http://www.w3.org/2000/svg"><defs><linearGradient x1="50%" y1="0%" x2="50%" y2="100%" id="a"><stop stop-color="#FFF" stop-opacity=".6" offset="0%"/><stop stop-color="#FFF" stop-opacity=".6" offset="100%"/></linearGradient></defs><g transform="translate(1 1)" fill-rule="nonzero" fill="none"><circle stroke="#CCC" stroke-width=".5" fill="url(#a)" cx="22" cy="22" r="22"/><path d="M22.078 31.302c.735 0 1.327.604 1.327 1.346 0 .746-.592 1.347-1.327 1.347a1.335 1.335 0 0 1-1.326-1.347c0-.742.592-1.346 1.326-1.346zm.849-19.904l8.686 8.933a1.36 1.36 0 0 1 0 1.881 1.27 1.27 0 0 1-1.83 0l-6.467-6.65V28.67c0 .753-.592 1.365-1.326 1.365-.734 0-1.327-.61-1.327-1.365V15.585l-6.445 6.627a1.27 1.27 0 0 1-1.83 0 1.36 1.36 0 0 1 0-1.88l8.61-8.854a1.311 1.311 0 0 1 1.526-.344c.086.038.17.087.263.159.048.033.094.07.14.105z" fill="#666"/></g></svg>